<svg width="101" height="101" viewBox="0 0 101 101" fill="none" xmlns="http://www.w3.org/2000/svg">
<path d="M34.2893 100.564C31.1958 100.564 28.2911 99.0392 26.5166 96.4813L2.71289 62.1746C-0.587311 57.4166 -0.305071 50.991 3.39849 46.5469C5.96309 43.4698 9.70777 41.8046 13.6958 41.9851C17.676 42.1634 21.2685 44.1539 23.5542 47.4474L35.1827 64.2066C35.336 64.4264 35.5505 64.4668 35.6638 64.4701C35.7783 64.4892 35.995 64.4488 36.1627 64.2414L84.6824 3.87243C86.5059 1.60497 89.3016 0.375931 92.2029 0.587873C95.0886 0.798695 97.6943 2.42359 99.1744 4.93326C100.952 7.9498 100.812 11.7558 98.8166 14.6299L48.9057 86.5671L42.0764 96.4623C40.3063 99.0269 37.3995 100.56 34.3015 100.563C34.2982 100.564 34.2937 100.564 34.2893 100.564ZM13.1235 46.4584C10.6745 46.4584 8.38769 47.5304 6.80092 49.4345C4.39077 52.3266 4.20743 56.5071 6.35423 59.6011L30.1579 93.9089C31.1158 95.2882 32.6214 96.081 34.2904 96.081C34.2926 96.081 34.2948 96.081 34.2971 96.081C35.9683 96.0788 37.475 95.2837 38.4295 93.8999L45.2622 84.0003L95.1764 12.0597C96.1709 10.6277 96.2409 8.73141 95.3553 7.22875C94.6064 5.96046 93.3407 5.171 91.8817 5.06334C90.4239 4.95905 89.0571 5.55339 88.136 6.69945L39.6141 67.0684C38.604 68.3243 37.095 69.0095 35.506 68.9546C33.9048 68.8963 32.4603 68.1046 31.5413 66.7802L19.9128 50.0199C18.4261 47.8769 16.0882 46.5817 13.4991 46.4662C13.3736 46.4606 13.248 46.4584 13.1235 46.4584Z" fill="white"/>
</svg>
